<?xml version="1.0" encoding="UTF-8" standalone="no"?>
<!-- Created with Inkscape (http://www.inkscape.org/) -->

<svg
   xmlns:dc="http://purl.org/dc/elements/1.1/"
   xmlns:cc="http://creativecommons.org/ns#"
   xmlns:rdf="http://www.w3.org/1999/02/22-rdf-syntax-ns#"
   xmlns:svg="http://www.w3.org/2000/svg"
   xmlns="http://www.w3.org/2000/svg"
   xmlns:xlink="http://www.w3.org/1999/xlink"
   xmlns:sodipodi="http://sodipodi.sourceforge.net/DTD/sodipodi-0.dtd"
   xmlns:inkscape="http://www.inkscape.org/namespaces/inkscape"
   width="215.69"
   height="162.88"
   id="svg2"
   sodipodi:version="0.32"
   inkscape:version="0.48.2 r9819"
   version="1.0"
   sodipodi:docname="mystica_(Light)_bulb.svg"
   inkscape:output_extension="org.inkscape.output.svg.inkscape"
   inkscape:export-filename="C:\Documents and Settings\Dan\Skrivbord\Clipart egna (InkScape)\Original\Kanske Upload\Glödlampa.png"
   inkscape:export-xdpi="310"
   inkscape:export-ydpi="310">
  <defs
     id="defs4">
    <linearGradient
       inkscape:collect="always"
       id="linearGradient4193">
      <stop
         style="stop-color:#b4a252;stop-opacity:1"
         offset="0"
         id="stop4195" />
      <stop
         style="stop-color:#dcbf5e;stop-opacity:0"
         offset="1"
         id="stop4197" />
    </linearGradient>
    <linearGradient
       id="linearGradient4125"
       inkscape:collect="always">
      <stop
         id="stop4127"
         offset="0"
         style="stop-color:#b9b9b9;stop-opacity:1" />
      <stop
         id="stop4129"
         offset="1"
         style="stop-color:#cecece;stop-opacity:0" />
    </linearGradient>
    <linearGradient
       id="linearGradient4115"
       inkscape:collect="always">
      <stop
         id="stop4117"
         offset="0"
         style="stop-color:#959595;stop-opacity:0.30622008" />
      <stop
         id="stop4119"
         offset="1"
         style="stop-color:#3d3d3d;stop-opacity:0.53588516" />
    </linearGradient>
    <linearGradient
       inkscape:collect="always"
       id="linearGradient4023">
      <stop
         style="stop-color:#e8e8e8;stop-opacity:1;"
         offset="0"
         id="stop4025" />
      <stop
         style="stop-color:#cecece;stop-opacity:1"
         offset="1"
         id="stop4027" />
    </linearGradient>
    <linearGradient
       inkscape:collect="always"
       id="linearGradient4015">
      <stop
         style="stop-color:#000000;stop-opacity:1;"
         offset="0"
         id="stop4017" />
      <stop
         style="stop-color:#000000;stop-opacity:0;"
         offset="1"
         id="stop4019" />
    </linearGradient>
    <linearGradient
       id="linearGradient4005"
       inkscape:collect="always">
      <stop
         id="stop4007"
         offset="0"
         style="stop-color:#000000;stop-opacity:1" />
      <stop
         id="stop4009"
         offset="1"
         style="stop-color:#000000;stop-opacity:0" />
    </linearGradient>
    <linearGradient
       inkscape:collect="always"
       id="linearGradient3993">
      <stop
         style="stop-color:#585858;stop-opacity:1"
         offset="0"
         id="stop3995" />
      <stop
         style="stop-color:#434343;stop-opacity:1"
         offset="1"
         id="stop3997" />
    </linearGradient>
    <linearGradient
       inkscape:collect="always"
       id="linearGradient3951">
      <stop
         style="stop-color:#808080;stop-opacity:1"
         offset="0"
         id="stop3953" />
      <stop
         style="stop-color:#5b5b5b;stop-opacity:1"
         offset="1"
         id="stop3955" />
    </linearGradient>
    <inkscape:perspective
       sodipodi:type="inkscape:persp3d"
       inkscape:vp_x="-50 : 600 : 1"
       inkscape:vp_y="0 : 1000 : 0"
       inkscape:vp_z="700 : 600 : 1"
       inkscape:persp3d-origin="300 : 400 : 1"
       id="perspective54" />
    <linearGradient
       id="linearGradient3217">
      <stop
         style="stop-color:#686868;stop-opacity:1;"
         offset="0"
         id="stop3219" />
      <stop
         style="stop-color:#686868;stop-opacity:0;"
         offset="1"
         id="stop3221" />
    </linearGradient>
    <inkscape:perspective
       sodipodi:type="inkscape:persp3d"
       inkscape:vp_x="-50 : 600 : 1"
       inkscape:vp_y="0 : 1000 : 0"
       inkscape:vp_z="700 : 600 : 1"
       inkscape:persp3d-origin="300 : 400 : 1"
       id="perspective10" />
    <inkscape:perspective
       id="perspective2395"
       inkscape:persp3d-origin="300 : 400 : 1"
       inkscape:vp_z="700 : 600 : 1"
       inkscape:vp_y="0 : 1000 : 0"
       inkscape:vp_x="-50 : 600 : 1"
       sodipodi:type="inkscape:persp3d" />
    <linearGradient
       inkscape:collect="always"
       id="linearGradient3951-9">
      <stop
         style="stop-color:#808080;stop-opacity:1"
         offset="0"
         id="stop3953-4" />
      <stop
         style="stop-color:#5b5b5b;stop-opacity:1"
         offset="1"
         id="stop3955-8" />
    </linearGradient>
    <linearGradient
       gradientTransform="translate(-338.56326,-687.35608)"
       y2="707.60608"
       x2="371.79916"
       y1="707.60608"
       x1="340.54916"
       gradientUnits="userSpaceOnUse"
       id="linearGradient3974"
       xlink:href="#linearGradient3951-9"
       inkscape:collect="always" />
    <linearGradient
       inkscape:collect="always"
       xlink:href="#linearGradient4115"
       id="linearGradient4090"
       gradientUnits="userSpaceOnUse"
       gradientTransform="translate(-111.01576,0)"
       x1="316.29916"
       y1="614.85608"
       x2="388.54916"
       y2="640.85608" />
    <linearGradient
       inkscape:collect="always"
       xlink:href="#linearGradient4005"
       id="linearGradient4093"
       gradientUnits="userSpaceOnUse"
       gradientTransform="translate(-111.01576,0)"
       x1="353.86166"
       y1="690.17987"
       x2="353.86166"
       y2="693.87506" />
    <linearGradient
       inkscape:collect="always"
       xlink:href="#linearGradient3951-9"
       id="linearGradient4096"
       gradientUnits="userSpaceOnUse"
       gradientTransform="translate(-111.01576,0)"
       x1="340.54916"
       y1="707.60608"
       x2="371.79916"
       y2="707.60608" />
    <linearGradient
       inkscape:collect="always"
       xlink:href="#linearGradient3993"
       id="linearGradient4099"
       gradientUnits="userSpaceOnUse"
       gradientTransform="translate(84.033386,579.99894)"
       x1="178.75"
       y1="127.10715"
       x2="140.99255"
       y2="127.10715" />
    <linearGradient
       inkscape:collect="always"
       xlink:href="#linearGradient4015"
       id="linearGradient4102"
       gradientUnits="userSpaceOnUse"
       gradientTransform="translate(-179.78191,0)"
       x1="425.30078"
       y1="686.32568"
       x2="425.30078"
       y2="700.67645" />
    <linearGradient
       inkscape:collect="always"
       xlink:href="#linearGradient3951"
       id="linearGradient4105"
       gradientUnits="userSpaceOnUse"
       gradientTransform="translate(-111.01576,0)"
       x1="340.54916"
       y1="707.60608"
       x2="371.79916"
       y2="707.60608" />
    <linearGradient
       inkscape:collect="always"
       xlink:href="#linearGradient4023"
       id="linearGradient4109"
       gradientUnits="userSpaceOnUse"
       gradientTransform="translate(-111.01576,-129.75409)"
       x1="313.54916"
       y1="617.35608"
       x2="388.54916"
       y2="640.85608" />
    <linearGradient
       inkscape:collect="always"
       xlink:href="#linearGradient4023"
       id="linearGradient4113"
       gradientUnits="userSpaceOnUse"
       gradientTransform="translate(51.972353,-24.041631)"
       x1="313.54916"
       y1="617.35608"
       x2="388.54916"
       y2="640.85608" />
    <linearGradient
       inkscape:collect="always"
       xlink:href="#linearGradient4125"
       id="linearGradient4123"
       gradientUnits="userSpaceOnUse"
       gradientTransform="translate(-111.01576,0)"
       x1="362.04916"
       y1="685.29071"
       x2="362.04916"
       y2="652.84259" />
    <linearGradient
       inkscape:collect="always"
       xlink:href="#linearGradient3951"
       id="linearGradient4212"
       gradientUnits="userSpaceOnUse"
       gradientTransform="translate(-111.01576,0)"
       x1="340.54916"
       y1="707.60608"
       x2="371.79916"
       y2="707.60608" />
    <linearGradient
       inkscape:collect="always"
       xlink:href="#linearGradient4015"
       id="linearGradient4214"
       gradientUnits="userSpaceOnUse"
       gradientTransform="translate(-179.78191,0)"
       x1="425.30078"
       y1="686.32568"
       x2="425.30078"
       y2="700.67645" />
    <linearGradient
       inkscape:collect="always"
       xlink:href="#linearGradient3993"
       id="linearGradient4216"
       gradientUnits="userSpaceOnUse"
       gradientTransform="translate(84.033386,579.99894)"
       x1="178.75"
       y1="127.10715"
       x2="140.99255"
       y2="127.10715" />
    <linearGradient
       inkscape:collect="always"
       xlink:href="#linearGradient3951-9"
       id="linearGradient4218"
       gradientUnits="userSpaceOnUse"
       gradientTransform="translate(-111.01576,0)"
       x1="340.54916"
       y1="707.60608"
       x2="371.79916"
       y2="707.60608" />
    <linearGradient
       inkscape:collect="always"
       xlink:href="#linearGradient4005"
       id="linearGradient4220"
       gradientUnits="userSpaceOnUse"
       gradientTransform="translate(-111.01576,0)"
       x1="353.86166"
       y1="690.17987"
       x2="353.86166"
       y2="693.87506" />
    <linearGradient
       inkscape:collect="always"
       xlink:href="#linearGradient4115"
       id="linearGradient4222"
       gradientUnits="userSpaceOnUse"
       gradientTransform="translate(-111.01576,0)"
       x1="316.29916"
       y1="614.85608"
       x2="388.54916"
       y2="640.85608" />
    <linearGradient
       inkscape:collect="always"
       xlink:href="#linearGradient4193"
       id="linearGradient4224"
       gradientUnits="userSpaceOnUse"
       gradientTransform="translate(-111.01576,0)"
       x1="362.04916"
       y1="685.29071"
       x2="362.04916"
       y2="652.84259" />
    <linearGradient
       inkscape:collect="always"
       xlink:href="#linearGradient3951"
       id="linearGradient4252"
       gradientUnits="userSpaceOnUse"
       gradientTransform="translate(-111.01576,0)"
       x1="340.54916"
       y1="707.60608"
       x2="371.79916"
       y2="707.60608" />
    <linearGradient
       inkscape:collect="always"
       xlink:href="#linearGradient4015"
       id="linearGradient4254"
       gradientUnits="userSpaceOnUse"
       gradientTransform="translate(-179.78191,0)"
       x1="425.30078"
       y1="686.32568"
       x2="425.30078"
       y2="700.67645" />
    <linearGradient
       inkscape:collect="always"
       xlink:href="#linearGradient3993"
       id="linearGradient4256"
       gradientUnits="userSpaceOnUse"
       gradientTransform="translate(84.033386,579.99894)"
       x1="178.75"
       y1="127.10715"
       x2="140.99255"
       y2="127.10715" />
    <linearGradient
       inkscape:collect="always"
       xlink:href="#linearGradient3951-9"
       id="linearGradient4258"
       gradientUnits="userSpaceOnUse"
       gradientTransform="translate(-111.01576,0)"
       x1="340.54916"
       y1="707.60608"
       x2="371.79916"
       y2="707.60608" />
    <linearGradient
       inkscape:collect="always"
       xlink:href="#linearGradient4005"
       id="linearGradient4260"
       gradientUnits="userSpaceOnUse"
       gradientTransform="translate(-111.01576,0)"
       x1="353.86166"
       y1="690.17987"
       x2="353.86166"
       y2="693.87506" />
    <linearGradient
       inkscape:collect="always"
       xlink:href="#linearGradient4115"
       id="linearGradient4262"
       gradientUnits="userSpaceOnUse"
       gradientTransform="translate(-111.01576,0)"
       x1="316.29916"
       y1="614.85608"
       x2="388.54916"
       y2="640.85608" />
    <linearGradient
       inkscape:collect="always"
       xlink:href="#linearGradient4125"
       id="linearGradient4264"
       gradientUnits="userSpaceOnUse"
       gradientTransform="translate(-111.01576,0)"
       x1="362.04916"
       y1="685.29071"
       x2="362.04916"
       y2="652.84259" />
    <linearGradient
       inkscape:collect="always"
       xlink:href="#linearGradient3951"
       id="linearGradient4266"
       gradientUnits="userSpaceOnUse"
       gradientTransform="translate(-111.01576,0)"
       x1="340.54916"
       y1="707.60608"
       x2="371.79916"
       y2="707.60608" />
    <linearGradient
       inkscape:collect="always"
       xlink:href="#linearGradient4015"
       id="linearGradient4268"
       gradientUnits="userSpaceOnUse"
       gradientTransform="translate(-179.78191,0)"
       x1="425.30078"
       y1="686.32568"
       x2="425.30078"
       y2="700.67645" />
    <linearGradient
       inkscape:collect="always"
       xlink:href="#linearGradient3993"
       id="linearGradient4270"
       gradientUnits="userSpaceOnUse"
       gradientTransform="translate(84.033386,579.99894)"
       x1="178.75"
       y1="127.10715"
       x2="140.99255"
       y2="127.10715" />
    <linearGradient
       inkscape:collect="always"
       xlink:href="#linearGradient3951-9"
       id="linearGradient4272"
       gradientUnits="userSpaceOnUse"
       gradientTransform="translate(-111.01576,0)"
       x1="340.54916"
       y1="707.60608"
       x2="371.79916"
       y2="707.60608" />
    <linearGradient
       inkscape:collect="always"
       xlink:href="#linearGradient4005"
       id="linearGradient4274"
       gradientUnits="userSpaceOnUse"
       gradientTransform="translate(-111.01576,0)"
       x1="353.86166"
       y1="690.17987"
       x2="353.86166"
       y2="693.87506" />
    <linearGradient
       inkscape:collect="always"
       xlink:href="#linearGradient4115"
       id="linearGradient4276"
       gradientUnits="userSpaceOnUse"
       gradientTransform="translate(-111.01576,0)"
       x1="316.29916"
       y1="614.85608"
       x2="388.54916"
       y2="640.85608" />
    <linearGradient
       inkscape:collect="always"
       xlink:href="#linearGradient4193"
       id="linearGradient4278"
       gradientUnits="userSpaceOnUse"
       gradientTransform="translate(-111.01576,0)"
       x1="362.04916"
       y1="685.29071"
       x2="362.04916"
       y2="652.84259" />
  </defs>
  <sodipodi:namedview
     id="base"
     pagecolor="#ffffff"
     bordercolor="#666666"
     borderopacity="1.0"
     gridtolerance="10000"
     guidetolerance="10"
     objecttolerance="10"
     inkscape:pageopacity="0.0"
     inkscape:pageshadow="2"
     inkscape:zoom="1"
     inkscape:cx="-9.0810289"
     inkscape:cy="128.39763"
     inkscape:document-units="px"
     inkscape:current-layer="layer2"
     showgrid="false"
     inkscape:window-width="1680"
     inkscape:window-height="988"
     inkscape:window-x="-8"
     inkscape:window-y="-8"
     inkscape:window-maximized="1"
     fit-margin-top="0"
     fit-margin-left="0"
     fit-margin-right="0"
     fit-margin-bottom="0" />
  <metadata
     id="metadata7">
    <rdf:RDF>
      <cc:Work
         rdf:about="">
        <dc:format>image/svg+xml</dc:format>
        <dc:type
           rdf:resource="http://purl.org/dc/dcmitype/StillImage" />
      </cc:Work>
    </rdf:RDF>
  </metadata>
  <g
     inkscape:groupmode="layer"
     id="layer2"
     transform="translate(-200.07874,-570.09267)">
    <g
       id="g4131"
       transform="translate(8.5012512,-5.4999888)">
      <rect
         ry="0"
         rx="0"
         y="687.35608"
         x="227.5475"
         height="31.25"
         width="33.75"
         id="rect3835"
         style="color:#000000;fill:url(#linearGradient4252);fill-opacity:1;fill-rule:nonzero;stroke:none;marker:none;visibility:visible;display:inline;overflow:visible;enable-background:accumulate" />
      <rect
         style="color:#000000;fill:url(#linearGradient4254);fill-opacity:1;fill-rule:nonzero;stroke:none;marker:none;visibility:visible;display:inline;overflow:visible;enable-background:accumulate"
         id="rect4011"
         width="33.75"
         height="31.25"
         x="227.5475"
         y="687.35608"
         rx="0"
         ry="0" />
      <path
         inkscape:connector-curvature="0"
         id="path3869"
         d="m 225.53339,695.84269 0,2.4375 17.75,-2.4375 -17.75,0 z m 37.75,0.25 -37.75,5.1875 0,2.0625 37.75,-5.1875 0,-2.0625 z m 0,5.0625 -37.75,5.1875 0,2.0625 37.75,-5.1875 0,-2.0625 z m 0,5.0625 -37.75,5.1875 0,2.03125 37.75,-5.1875 0,-2.03125 z m 0,5.03125 -37.75,5.1875 0,2.0625 37.75,-5.1875 0,-2.0625 z"
         style="fill:url(#linearGradient4256);fill-opacity:1;stroke:none" />
      <path
         sodipodi:nodetypes="csssscc"
         inkscape:connector-curvature="0"
         id="rect3837"
         d="m 225.17249,688.21769 0,5.25 c 0,1.385 1.115,2.5 2.5,2.5 l 33.5,0 c 1.385,0 2.5,-1.115 2.5,-2.5 l 0,-5.25 z"
         style="color:#000000;fill:url(#linearGradient4258);fill-opacity:1;fill-rule:nonzero;stroke:none;stroke-width:1;marker:none;visibility:visible;display:inline;overflow:visible;enable-background:accumulate" />
      <path
         style="color:#000000;fill:url(#linearGradient4260);fill-opacity:1;fill-rule:nonzero;stroke:none;stroke-width:1;marker:none;visibility:visible;display:inline;overflow:visible;enable-background:accumulate"
         d="m 225.17249,688.21769 0,5.25 c 0,1.385 1.115,2.5 2.5,2.5 l 33.5,0 c 1.385,0 2.5,-1.115 2.5,-2.5 l 0,-5.25 z"
         id="path4001"
         inkscape:connector-curvature="0"
         sodipodi:nodetypes="csssscc" />
      <path
         sodipodi:nodetypes="sscccssccccss"
         inkscape:connector-curvature="0"
         id="path3032"
         d="m 244.42249,581.09269 c -24.49318,0 -44.34375,19.85057 -44.34375,44.34375 0,11.16688 4.12525,21.35948 10.9375,29.15625 3.87801,4.0518 6.59948,9.92334 7.46875,16.65625 l 0.0191,12.42933 c 0,4.45272 3.57565,8.02837 8.02837,8.02837 l 35.78001,0 c 4.45272,0 8.02837,-3.57565 8.02837,-8.02837 l -0.0121,-12.42933 c 0.86451,-6.71962 3.61034,-12.57375 7.46875,-16.625 0.003,-0.01 -0.002,-0.0215 0,-0.0312 6.8156,-7.79759 10.96875,-17.9863 10.96875,-29.15625 0,-24.49318 -19.85057,-44.34375 -44.34375,-44.34375 z"
         style="opacity:0.68292685;fill:url(#linearGradient4262);fill-opacity:1;stroke:none" />
      <path
         sodipodi:nodetypes="ccccc"
         inkscape:connector-curvature="0"
         id="rect3880"
         d="m 227.53339,718.59269 4.25,4.75 25.25,0 4.25,-4.75 z"
         style="color:#000000;fill:#808080;fill-opacity:1;fill-rule:nonzero;stroke:none;marker:none;visibility:visible;display:inline;overflow:visible;enable-background:accumulate" />
      <path
         sodipodi:nodetypes="csssscc"
         inkscape:connector-curvature="0"
         id="rect3883"
         d="m 231.77325,723.34269 c 0,1.03738 0.52146,2.07475 1.56443,2.86964 l 7.30554,5.56796 c 2.0859,1.58979 5.44444,1.58979 7.53034,0 l 7.30554,-5.56796 c 1.04295,-0.79489 1.56443,-1.83226 1.56443,-2.86964 z"
         style="color:#000000;fill:#343434;fill-opacity:1;fill-rule:nonzero;stroke:none;marker:none;visibility:visible;display:inline;overflow:visible;enable-background:accumulate" />
      <path
         sodipodi:nodetypes="sscccssccccss"
         inkscape:connector-curvature="0"
         id="path4121"
         d="m 244.42249,581.09269 c -24.49318,0 -44.34375,19.85057 -44.34375,44.34375 0,11.16688 4.12525,21.35948 10.9375,29.15625 3.87801,4.0518 6.59948,9.92334 7.46875,16.65625 l 0.0191,12.42933 c 0,4.45272 3.57565,8.02837 8.02837,8.02837 l 35.78001,0 c 4.45272,0 8.02837,-3.57565 8.02837,-8.02837 l -0.0121,-12.42933 c 0.86451,-6.71962 3.61034,-12.57375 7.46875,-16.625 0.003,-0.01 -0.002,-0.0215 0,-0.0312 6.8156,-7.79759 10.96875,-17.9863 10.96875,-29.15625 0,-24.49318 -19.85057,-44.34375 -44.34375,-44.34375 z"
         style="fill:url(#linearGradient4264);fill-opacity:1;stroke:none" />
      <path
         inkscape:connector-curvature="0"
         id="path3948"
         d="m 231.37714,591.37394 c -13.54729,6.74707 -22.9375,20.62002 -22.9375,36.8125 0,0.60674 0.12823,1.32955 0.1875,1.96875 l 11.9375,-2.03125 c 1.35603,-11.12712 7.91579,-20.59464 17.25,-25.90625 l -6.4375,-10.84375 z"
         style="fill:#ffffff;fill-opacity:1;stroke:none" />
    </g>
    <g
       id="g4153"
       transform="translate(151.50125,-5.4999888)">
      <g
         id="g4199"
         transform="translate(-33,0)">
        <path
           style="opacity:0.68292685;fill:#ffb700;fill-opacity:1;stroke:none"
           d="m 244.42249,581.09269 c -24.49318,0 -44.34375,19.85057 -44.34375,44.34375 0,11.16688 4.12525,21.35948 10.9375,29.15625 3.87801,4.0518 6.59948,9.92334 7.46875,16.65625 l 0.0191,12.42933 c 0,4.45272 3.57565,8.02837 8.02837,8.02837 l 35.78001,0 c 4.45272,0 8.02837,-3.57565 8.02837,-8.02837 l -0.0121,-12.42933 c 0.86451,-6.71962 3.61034,-12.57375 7.46875,-16.625 0.003,-0.01 -0.002,-0.0215 0,-0.0312 6.8156,-7.79759 10.96875,-17.9863 10.96875,-29.15625 0,-24.49318 -19.85057,-44.34375 -44.34375,-44.34375 z"
           id="path4189"
           inkscape:connector-curvature="0"
           sodipodi:nodetypes="sscccssccccss" />
        <rect
           ry="0"
           rx="0"
           y="687.35608"
           x="227.5475"
           height="31.25"
           width="33.75"
           id="rect4155"
           style="color:#000000;fill:url(#linearGradient4266);fill-opacity:1;fill-rule:nonzero;stroke:none;marker:none;visibility:visible;display:inline;overflow:visible;enable-background:accumulate" />
        <rect
           style="color:#000000;fill:url(#linearGradient4268);fill-opacity:1;fill-rule:nonzero;stroke:none;marker:none;visibility:visible;display:inline;overflow:visible;enable-background:accumulate"
           id="rect4157"
           width="33.75"
           height="31.25"
           x="227.5475"
           y="687.35608"
           rx="0"
           ry="0" />
        <path
           inkscape:connector-curvature="0"
           id="path4159"
           d="m 225.53339,695.84269 0,2.4375 17.75,-2.4375 -17.75,0 z m 37.75,0.25 -37.75,5.1875 0,2.0625 37.75,-5.1875 0,-2.0625 z m 0,5.0625 -37.75,5.1875 0,2.0625 37.75,-5.1875 0,-2.0625 z m 0,5.0625 -37.75,5.1875 0,2.03125 37.75,-5.1875 0,-2.03125 z m 0,5.03125 -37.75,5.1875 0,2.0625 37.75,-5.1875 0,-2.0625 z"
           style="fill:url(#linearGradient4270);fill-opacity:1;stroke:none" />
        <path
           sodipodi:nodetypes="csssscc"
           inkscape:connector-curvature="0"
           id="path4161"
           d="m 225.17249,688.21769 0,5.25 c 0,1.385 1.115,2.5 2.5,2.5 l 33.5,0 c 1.385,0 2.5,-1.115 2.5,-2.5 l 0,-5.25 z"
           style="color:#000000;fill:url(#linearGradient4272);fill-opacity:1;fill-rule:nonzero;stroke:none;stroke-width:1;marker:none;visibility:visible;display:inline;overflow:visible;enable-background:accumulate" />
        <path
           style="color:#000000;fill:url(#linearGradient4274);fill-opacity:1;fill-rule:nonzero;stroke:none;stroke-width:1;marker:none;visibility:visible;display:inline;overflow:visible;enable-background:accumulate"
           d="m 225.17249,688.21769 0,5.25 c 0,1.385 1.115,2.5 2.5,2.5 l 33.5,0 c 1.385,0 2.5,-1.115 2.5,-2.5 l 0,-5.25 z"
           id="path4163"
           inkscape:connector-curvature="0"
           sodipodi:nodetypes="csssscc" />
        <path
           sodipodi:nodetypes="sscccssccccss"
           inkscape:connector-curvature="0"
           id="path4165"
           d="m 244.42249,581.09269 c -24.49318,0 -44.34375,19.85057 -44.34375,44.34375 0,11.16688 4.12525,21.35948 10.9375,29.15625 3.87801,4.0518 6.59948,9.92334 7.46875,16.65625 l 0.0191,12.42933 c 0,4.45272 3.57565,8.02837 8.02837,8.02837 l 35.78001,0 c 4.45272,0 8.02837,-3.57565 8.02837,-8.02837 l -0.0121,-12.42933 c 0.86451,-6.71962 3.61034,-12.57375 7.46875,-16.625 0.003,-0.01 -0.002,-0.0215 0,-0.0312 6.8156,-7.79759 10.96875,-17.9863 10.96875,-29.15625 0,-24.49318 -19.85057,-44.34375 -44.34375,-44.34375 z"
           style="opacity:0.68292685;fill:url(#linearGradient4276);fill-opacity:1;stroke:none" />
        <path
           sodipodi:nodetypes="ccccc"
           inkscape:connector-curvature="0"
           id="path4167"
           d="m 227.53339,718.59269 4.25,4.75 25.25,0 4.25,-4.75 z"
           style="color:#000000;fill:#808080;fill-opacity:1;fill-rule:nonzero;stroke:none;marker:none;visibility:visible;display:inline;overflow:visible;enable-background:accumulate" />
        <path
           sodipodi:nodetypes="csssscc"
           inkscape:connector-curvature="0"
           id="path4169"
           d="m 231.77325,723.34269 c 0,1.03738 0.52146,2.07475 1.56443,2.86964 l 7.30554,5.56796 c 2.0859,1.58979 5.44444,1.58979 7.53034,0 l 7.30554,-5.56796 c 1.04295,-0.79489 1.56443,-1.83226 1.56443,-2.86964 z"
           style="color:#000000;fill:#343434;fill-opacity:1;fill-rule:nonzero;stroke:none;marker:none;visibility:visible;display:inline;overflow:visible;enable-background:accumulate" />
        <path
           sodipodi:nodetypes="sscccssccccss"
           inkscape:connector-curvature="0"
           id="path4171"
           d="m 244.42249,581.09269 c -24.49318,0 -44.34375,19.85057 -44.34375,44.34375 0,11.16688 4.12525,21.35948 10.9375,29.15625 3.87801,4.0518 6.59948,9.92334 7.46875,16.65625 l 0.0191,12.42933 c 0,4.45272 3.57565,8.02837 8.02837,8.02837 l 35.78001,0 c 4.45272,0 8.02837,-3.57565 8.02837,-8.02837 l -0.0121,-12.42933 c 0.86451,-6.71962 3.61034,-12.57375 7.46875,-16.625 0.003,-0.01 -0.002,-0.0215 0,-0.0312 6.8156,-7.79759 10.96875,-17.9863 10.96875,-29.15625 0,-24.49318 -19.85057,-44.34375 -44.34375,-44.34375 z"
           style="fill:url(#linearGradient4278);fill-opacity:1;stroke:none" />
        <path
           inkscape:connector-curvature="0"
           id="path4173"
           d="m 231.37714,591.37394 c -13.54729,6.74707 -22.9375,20.62002 -22.9375,36.8125 0,0.60674 0.12823,1.32955 0.1875,1.96875 l 11.9375,-2.03125 c 1.35603,-11.12712 7.91579,-20.59464 17.25,-25.90625 l -6.4375,-10.84375 z"
           style="fill:#ffffff;fill-opacity:1;stroke:none" />
      </g>
    </g>
  </g>
</svg>
